<svg width="78" height="88" viewBox="0 0 78 88" fill="none" xmlns="http://www.w3.org/2000/svg">
<path fill-rule="evenodd" clip-rule="evenodd" d="M40.6135 0.114903C42.529 0.596982 44.4747 2.22211 45.3443 4.06657C45.7407 4.90763 45.7892 5.21564 45.7764 6.82131C45.7687 7.8156 45.73 8.76082 45.6905 8.9218C45.6343 9.15131 47.7919 10.4734 55.6747 15.0396L65.7306 20.8646L66.5922 20.166C68.4909 18.6264 70.8743 18.1474 73.1503 18.8482C77.9043 20.3116 79.5918 26.3405 76.2672 29.984C75.3236 31.0181 74.3949 31.6367 73.1462 32.0628L72.3486 32.335V44.0103V55.6856L73.1462 55.9578C75.0934 56.6223 76.8514 58.2407 77.5149 59.9797C79.3547 64.8013 75.7226 69.796 70.6307 69.4465C69.0907 69.3408 68.06 68.9388 66.7087 67.9169C65.9362 67.3328 65.7182 67.2436 65.4116 67.3863C65.2089 67.4806 60.6726 70.0883 55.3309 73.1812C47.7077 77.595 45.6343 78.8675 45.6905 79.0979C45.73 79.2594 45.7687 80.205 45.7764 81.1992C45.7892 82.8049 45.7407 83.1129 45.3443 83.954C44.6514 85.4238 43.4806 86.5996 41.9614 87.3516C40.7218 87.9652 40.5632 88 39.0008 88C37.4384 88 37.2798 87.9652 36.0402 87.3516C34.5283 86.6032 33.436 85.5058 32.6914 83.987C32.2627 83.1124 32.2109 82.8218 32.2109 81.2853C32.2109 80.3384 32.2701 79.4025 32.3423 79.2053C32.4607 78.8818 32.0438 78.5991 28.0449 76.2915C25.6091 74.8861 21.1645 72.3154 18.1681 70.579C15.1716 68.8427 12.6047 67.3779 12.4637 67.3236C12.316 67.2668 11.8174 67.5202 11.286 67.9221C9.94559 68.9358 8.90785 69.341 7.38434 69.4455C4.39335 69.6509 1.92579 68.1712 0.605797 65.3807C0.116409 64.3463 0.0670776 64.0885 0.0730896 62.6048C0.0816879 60.5391 0.499565 59.39 1.73447 58.0365C2.67801 57.0025 3.60676 56.3839 4.85541 55.9578L5.65301 55.6856V44.0103V32.335L4.85541 32.0628C2.90817 31.3982 1.15019 29.7798 0.486679 28.0409C-1.35003 23.227 2.24534 18.2673 7.35701 18.5636C8.87347 18.6515 10.4104 19.2824 11.5683 20.2923L12.2407 20.8789L17.9284 17.5813C21.0566 15.7678 25.6091 13.134 28.0449 11.7287C32.0438 9.42127 32.4607 9.13874 32.3423 8.81523C32.2701 8.61809 32.2113 7.68217 32.2116 6.73523C32.2123 5.2413 32.2713 4.88818 32.658 4.06657C33.7676 1.70955 36.0745 0.132981 38.5908 0.0121166C39.3363 -0.023695 40.2465 0.022619 40.6135 0.114903ZM36.877 3.09587C35.3362 4.00029 34.6159 5.38764 34.7328 7.22609C34.8265 8.6997 35.4873 9.79884 36.7275 10.5437C38.2866 11.4803 39.715 11.4803 41.2741 10.5437C42.5695 9.76561 43.1909 8.68954 43.265 7.09627C43.3147 6.02864 43.2607 5.75592 42.8374 4.93604C42.3046 3.90439 41.4639 3.14098 40.4401 2.75928C39.4469 2.38894 37.8195 2.54269 36.877 3.09587ZM43.9016 11.8124C43.4313 12.3329 42.0661 13.1638 41.1892 13.463L40.4057 13.7304L40.348 16.4564C40.2814 19.5876 40.157 19.9063 39.0008 19.9063C37.9043 19.9063 37.8132 19.6603 37.759 16.5571L37.7116 13.8275L36.5343 13.35C35.8867 13.0873 34.9796 12.5539 34.5186 12.1645L33.6801 11.4563L23.6117 17.2738L13.5432 23.0915L13.6775 23.9523C13.8493 25.0544 13.8504 25.9862 13.6807 26.987L13.5456 27.7833L15.5726 28.9506C18.0787 30.3938 18.3733 30.6488 18.3733 31.3733C18.3733 31.9938 17.7326 32.647 17.1241 32.647C16.9352 32.647 15.7674 32.0583 14.5289 31.3387C13.1296 30.5257 12.2043 30.0858 12.0845 30.1765C11.9784 30.2569 11.5129 30.6093 11.05 30.9597C10.3394 31.4974 9.53046 31.8908 8.44511 32.226C8.2739 32.2789 8.23815 34.7223 8.27322 44.0172L8.31739 55.7417L9.18048 56.0344C10.0778 56.3386 10.9098 56.8474 11.7043 57.5779L12.1689 58.005L14.4793 56.6893C15.75 55.9657 16.9562 55.3736 17.1595 55.3736C17.6935 55.3736 18.3733 56.1239 18.3733 56.7131C18.3733 57.3611 18.024 57.6542 15.5721 59.0642L13.5446 60.2305L13.6802 61.0303C13.8505 62.0356 13.8495 62.9667 13.6768 64.0682L13.5417 64.9291L23.6055 70.7429L33.6693 76.5568L34.6077 75.7913C35.1239 75.3702 36.0072 74.8573 36.5711 74.6514L37.5961 74.2771L37.6538 71.5577C37.7202 68.4336 37.8452 68.1142 39.0008 68.1142C40.1565 68.1142 40.2814 68.4336 40.3478 71.5577L40.4055 74.2771L41.4306 74.6514C41.9944 74.8573 42.8772 75.3697 43.3927 75.7903L44.3299 76.5549L54.3944 70.7419L64.4591 64.9291L64.3245 64.0682C64.1521 62.966 64.1512 62.0349 64.3214 61.0303L64.457 60.2305L62.4295 59.0642C59.9776 57.6542 59.6283 57.3611 59.6283 56.7131C59.6283 56.1113 60.3128 55.3725 60.8668 55.3762C61.0838 55.3777 62.2669 55.9645 63.496 56.6802C64.8455 57.466 65.8057 57.9253 65.9202 57.8396C66.0246 57.7618 66.4887 57.4088 66.9516 57.0557C67.6622 56.5133 68.5643 56.075 69.5553 55.7904C69.87 55.7 69.87 32.3226 69.5553 32.2255C68.4734 31.8918 67.6619 31.4972 66.9516 30.9597C66.4887 30.6093 66.0232 30.2569 65.9171 30.1765C65.7973 30.0858 64.872 30.5257 63.4728 31.3387C62.2343 32.0583 61.0664 32.647 60.8775 32.647C60.269 32.647 59.6283 31.9938 59.6283 31.3733C59.6283 30.6488 59.9229 30.3938 62.429 28.9506L64.456 27.7833L64.3209 26.987C64.1509 25.9843 64.1523 25.0522 64.3252 23.9523L64.4607 23.0915L60.1966 20.6393C57.8514 19.2906 53.3412 16.6793 50.174 14.8364C47.0069 12.9936 44.3695 11.4822 44.3133 11.4779C44.257 11.4735 44.0717 11.624 43.9016 11.8124ZM69.7042 21.3231C68.5877 21.657 67.2866 23.0367 66.9346 24.26C66.3147 26.4142 67.3849 28.5825 69.506 29.4703C70.3211 29.8113 71.9429 29.8225 72.7318 29.4925C75.3585 28.3931 76.2532 25.0646 74.5303 22.8019C73.4353 21.3641 71.5249 20.7785 69.7042 21.3231ZM4.94514 21.5924C2.21818 23.0192 1.74341 26.662 4.02326 28.6667C4.91351 29.4498 5.66744 29.7373 6.84493 29.743C8.53449 29.7511 9.90313 28.9648 10.6703 27.5455C11.5031 26.0048 11.4249 24.3561 10.4513 22.9329C9.27348 21.2114 6.81657 20.6133 4.94514 21.5924ZM49.7704 23.2499C53.8069 24.2306 56.5079 28.1531 55.892 32.1396C55.6785 33.5201 54.9313 35.2335 54.1576 36.1161L53.6211 36.7281L54.5739 37.3855C56.0496 38.4035 57.3259 39.9315 58.1658 41.686C59.0172 43.4647 59.3052 44.5612 59.3435 46.1715C59.3674 47.1775 59.3232 47.3485 58.9646 47.6402C58.1127 48.3332 56.8814 47.7603 56.8751 46.6679C56.8692 45.691 56.359 43.7407 55.8234 42.6484C55.1597 41.2948 53.5478 39.6371 52.2206 38.9431L51.2591 38.4404L50.2325 38.7289C49.6635 38.8887 48.5945 39.0173 47.8337 39.0173H46.4614L46.2567 39.5769C46.1441 39.8845 45.747 40.5379 45.3742 41.0286L44.6964 41.9208L45.8275 42.7503C48.5237 44.7277 50.3358 48.187 50.3434 51.3706C50.3463 52.6114 49.9954 53.1353 49.1617 53.1353C48.243 53.1353 47.9191 52.6744 47.7653 51.1478C47.619 49.6969 47.2171 48.4427 46.513 47.2393C45.9186 46.2237 44.2338 44.6585 43.1349 44.1007C42.222 43.6374 42.2111 43.6361 41.242 43.9085C39.9952 44.2589 38.0064 44.2589 36.7596 43.9085C35.7919 43.6367 35.7785 43.6379 34.8775 44.0952C33.1261 44.9841 31.2878 47.1216 30.6685 48.9893C30.5181 49.443 30.3266 50.4238 30.2432 51.1686C30.1229 52.243 30.0136 52.5863 29.7141 52.8292C29.2033 53.2435 28.4241 53.2163 27.977 52.7684C27.6433 52.4343 27.6186 52.2688 27.7007 50.9176C27.9017 47.613 29.7387 44.4293 32.5918 42.4408L33.3166 41.9358L32.6331 41.036C32.2572 40.5412 31.8575 39.8845 31.7449 39.5769L31.5402 39.0173H30.1679C29.4071 39.0173 28.3381 38.8887 27.7691 38.7289L26.7426 38.4404L25.781 38.9431C24.4538 39.6371 22.8419 41.2948 22.1782 42.6484C21.6373 43.7517 21.1322 45.6936 21.1266 46.692C21.1205 47.7662 19.8825 48.3278 19.037 47.6402C18.6784 47.3485 18.6342 47.1775 18.6581 46.1715C18.6965 44.5612 18.9844 43.4647 19.8358 41.686C20.6757 39.9315 21.952 38.4035 23.4277 37.3855L24.3805 36.7281L23.8441 36.1161C23.0704 35.2335 22.3231 33.5201 22.1096 32.1396C21.3148 26.9953 26.0644 22.2909 31.1936 23.1423C33.6724 23.5536 36.1028 25.3096 37.1354 27.4348L37.5397 28.2668L39.0187 28.2678L40.4977 28.2688L40.8746 27.446C41.4747 26.1358 42.9694 24.6507 44.3906 23.9525C46.2784 23.0254 47.9485 22.8072 49.7704 23.2499ZM45.8081 26.079C44.805 26.5234 43.7828 27.4765 43.2807 28.4353C42.8726 29.2149 42.8719 29.2246 43.2123 29.4164C43.4013 29.5229 44.0019 30.035 44.5467 30.5544C45.6781 31.6325 46.656 33.402 46.8231 34.6729C46.8819 35.1211 46.9721 35.7106 47.0234 35.9828L47.1167 36.4776L48.3446 36.3974C51.0172 36.2225 53.0645 34.268 53.3704 31.599C53.5741 29.8229 52.6414 27.7 51.2271 26.7207C49.5557 25.5637 47.5164 25.3221 45.8081 26.079ZM27.7798 26.151C24.3331 27.7315 23.5261 32.4583 26.2779 34.9484C27.3351 35.905 28.2719 36.3067 29.6571 36.3974L30.8849 36.4776L30.9783 35.9828C31.0295 35.7106 31.1197 35.1211 31.1785 34.6729C31.3456 33.402 32.3235 31.6325 33.4549 30.5544C33.9997 30.035 34.5984 29.5252 34.7851 29.4214C35.1101 29.2406 35.1125 29.207 34.8404 28.6356C33.6038 26.0382 30.4476 24.9275 27.7798 26.151ZM37.0257 31.2126C35.8221 31.6115 34.3488 33.1056 33.9381 34.3436C33.0651 36.9767 34.0916 39.696 36.4535 41.0066C37.2856 41.4682 37.5144 41.5138 39.0008 41.5138C40.4872 41.5138 40.716 41.4682 41.5481 41.0066C44.553 39.3393 45.3238 35.2743 43.112 32.7577C41.5072 30.9316 39.4498 30.4094 37.0257 31.2126ZM32.4531 57.4465C33.3449 57.8222 33.5993 58.8049 32.9778 59.4731C32.6484 59.8273 32.4774 59.85 30.1415 59.85C27.8848 59.85 27.6241 59.8183 27.3119 59.5057C26.8775 59.0706 26.8706 58.2871 27.2966 57.76C27.6074 57.3754 27.7442 57.3513 29.8321 57.3127C31.0458 57.2904 32.2254 57.3506 32.4531 57.4465ZM50.7659 57.8224C51.4022 58.7321 50.8458 59.85 49.7569 59.85C49.1263 59.85 48.4551 59.2285 48.4551 58.6448C48.4551 58.4809 48.6155 58.1428 48.8114 57.8933C49.2865 57.2881 50.365 57.249 50.7659 57.8224ZM46.2966 57.8224C46.9329 58.7321 46.3765 59.85 45.2876 59.85C44.657 59.85 43.9858 59.2285 43.9858 58.6448C43.9858 58.4809 44.1462 58.1428 44.3421 57.8933C44.8172 57.2881 45.8957 57.249 46.2966 57.8224ZM41.8273 57.8224C41.9744 58.0328 42.0949 58.4029 42.0949 58.6448C42.0949 59.3988 41.6454 59.85 40.8944 59.85C40.3803 59.85 40.148 59.7469 39.8728 59.3964C39.6769 59.1469 39.5165 58.8087 39.5165 58.6448C39.5165 58.4809 39.6769 58.1428 39.8728 57.8933C40.348 57.2881 41.4264 57.249 41.8273 57.8224ZM69.019 58.7913C67.2161 59.7545 66.3656 61.7826 66.9346 63.7605C67.1601 64.5443 67.4107 64.9413 68.109 65.6214C69.5472 67.0222 71.3573 67.3173 73.0565 66.4282C75.1105 65.3535 76.003 62.914 75.085 60.883C73.9864 58.4523 71.353 57.5441 69.019 58.7913ZM5.21072 58.5599C4.3631 58.9034 3.39532 59.866 2.96301 60.7958C1.98819 62.8925 2.84595 65.3297 4.94514 66.4282C6.64433 67.3173 8.45439 67.0222 9.89265 65.6214C11.4471 64.1075 11.6936 62.1998 10.5761 60.3333C9.47133 58.4882 7.22242 57.7449 5.21072 58.5599ZM50.6598 62.831C51.1886 63.3949 51.1535 64.207 50.5806 64.6582C50.133 65.011 49.9973 65.0152 39.0008 65.0152C28.0043 65.0152 27.8687 65.011 27.421 64.6582C26.829 64.1918 26.8036 63.3361 27.3659 62.8069L27.7638 62.4326H39.0249H50.2859L50.6598 62.831ZM36.9212 77.3512C35.4572 78.1492 34.7022 79.4436 34.7051 81.1507C34.7129 85.731 40.9664 87.1543 42.8913 83.0141C44.0262 80.5732 42.7342 77.7011 40.1413 76.9003C39.2623 76.6288 37.8953 76.8202 36.9212 77.3512Z" fill="#C00815"/>
</svg>
