<svg width="87" height="87" viewBox="0 0 87 87" fill="none" xmlns="http://www.w3.org/2000/svg">
<path fill-rule="evenodd" clip-rule="evenodd" d="M61.0677 0.187293C60.5038 0.460224 60.326 1.06625 60.326 2.71556V4.23707H37.2115H14.097V5.59662V6.95618H38.2017H62.3062L62.7076 6.52894C63.0112 6.20587 63.1269 5.85392 63.1825 5.08441C63.2231 4.52495 63.3044 4.07205 63.3632 4.078C63.6281 4.10502 70.0973 8.28056 70.0856 8.41719C70.0733 8.56147 63.5936 12.7175 63.3632 12.729C63.3044 12.7319 63.2231 12.2765 63.1825 11.717C63.1269 10.9475 63.0112 10.5955 62.7076 10.2725L62.3062 9.84523H39.5614H16.8164V11.2048V12.5643H38.5712H60.326V14.1051C60.326 15.6375 60.4762 16.1998 60.991 16.5951C61.3335 16.858 61.9416 16.8684 62.4192 16.6196C63.404 16.1063 73.9207 9.45776 74.1117 9.22749C74.4449 8.82608 74.382 7.84788 73.9992 7.47893C73.3503 6.8537 62.1441 -0.0113721 61.7907 1.41478e-05C61.5927 0.00630209 61.2674 0.0905945 61.0677 0.187293ZM5.59903 11.2048V12.5643H7.04369H8.48834V11.2048V9.84523H7.04369H5.59903V11.2048ZM11.2077 11.2048V12.5643H12.6524H14.097V11.2048V9.84523H12.6524H11.2077V11.2048ZM2.45478 20.0191C1.58816 20.4137 0.630606 21.4735 0.257205 22.4514C0.00736442 23.1055 -0.0262876 23.7424 0.0206213 26.9386C0.0710992 30.3728 0.103901 30.7164 0.442121 31.3432C0.644033 31.7171 1.02644 32.2288 1.29192 32.4803C1.88678 33.0435 3.14499 33.6288 3.77197 33.6337L4.23936 33.6375V35.082C4.23936 36.4434 4.21845 36.5265 3.87666 36.5265C2.65125 36.5265 1.12502 37.5382 0.451979 38.7965C0.0938738 39.466 0.0753482 39.6961 0.0753482 43.4942C0.0753482 47.2923 0.0938738 47.5224 0.451979 48.192C1.12502 49.4503 2.65125 50.462 3.87666 50.462C4.21845 50.462 4.23936 50.5451 4.23936 51.9065V53.351L3.77197 53.3547C3.14499 53.3597 1.88678 53.945 1.29192 54.5082C1.02644 54.7597 0.644033 55.2714 0.442121 55.6453C0.103562 56.2729 0.0712692 56.6139 0.0213011 60.0905C-0.0296868 63.6519 -0.0125208 63.9027 0.339125 64.7201C0.745159 65.6642 1.74248 66.6738 2.638 67.048C3.11456 67.2472 5.92094 67.2858 19.6577 67.2827C35.2208 67.2791 36.1436 67.2623 36.7903 66.9685C37.5742 66.6124 38.4485 65.7933 38.8735 65.0167C39.1196 64.5672 39.1747 63.8899 39.2208 60.7509C39.2847 56.3917 39.1971 55.9153 38.1106 54.7068C37.3781 53.8919 37.1753 53.7901 35.2073 53.2468C35.0462 53.2023 35.0008 52.8354 35.0374 51.8708L35.087 50.5554L35.7964 50.4348C36.1865 50.3685 36.7322 50.197 37.0091 50.0539C37.7289 49.6817 38.8774 48.3161 39.0782 47.5938C39.3069 46.7697 39.2983 40.1875 39.0673 39.3552C38.8645 38.6257 37.7469 37.3161 36.9948 36.9272C36.7258 36.7881 36.1865 36.62 35.7964 36.5537L35.087 36.433L35.0374 35.1177C35.001 34.1549 35.0466 33.7846 35.2073 33.7365C35.328 33.7003 35.8093 33.5719 36.2767 33.451C36.9141 33.2863 37.3413 33.0165 37.9857 32.3722C39.2055 31.1525 39.2869 30.7484 39.2208 26.2376C39.1747 23.0985 39.1196 22.4213 38.8735 21.9718C38.4485 21.1951 37.5742 20.376 36.7903 20.02C36.1433 19.7261 35.2242 19.7095 19.6207 19.7095C4.03438 19.7095 3.09757 19.7263 2.45478 20.0191ZM50.2097 20.02C49.4258 20.376 48.5515 21.1951 48.1265 21.9718C47.8804 22.4213 47.8253 23.0985 47.7792 26.2376C47.7131 30.7484 47.7945 31.1525 49.0143 32.3722C49.6587 33.0165 50.0859 33.2863 50.7233 33.451C51.1907 33.5719 51.672 33.7003 51.7927 33.7365C51.9534 33.7846 51.999 34.1549 51.9626 35.1177L51.913 36.433L51.2036 36.5537C50.8135 36.62 50.2742 36.7881 50.0052 36.9272C49.2531 37.3161 48.1355 38.6257 47.9327 39.3552C47.6951 40.2114 47.6951 46.7771 47.9327 47.6332C48.1355 48.3628 49.2531 49.6724 50.0052 50.0612C50.2742 50.2004 50.8135 50.3685 51.2036 50.4348L51.913 50.5554L51.9626 51.8708C51.999 52.8335 51.9534 53.2038 51.7927 53.2519C51.672 53.2881 51.1907 53.4166 50.7233 53.5374C50.0859 53.7021 49.6587 53.972 49.0143 54.6162C47.7945 55.8359 47.7131 56.2401 47.7792 60.7509C47.8253 63.8899 47.8804 64.5672 48.1265 65.0167C48.5515 65.7933 49.4258 66.6124 50.2097 66.9685C50.8564 67.2623 51.7792 67.2791 67.3423 67.2827C80.9203 67.2858 83.889 67.2457 84.3506 67.0528C85.1484 66.7195 86.1187 65.8185 86.5523 65.0083C86.9051 64.3488 86.9247 64.1036 86.9247 60.3187C86.9247 56.5506 86.9039 56.2866 86.5579 55.6453C86.356 55.2714 85.9736 54.7597 85.7081 54.5082C85.1132 53.945 83.855 53.3597 83.228 53.3547L82.7606 53.351V51.9065C82.7606 50.5451 82.7815 50.462 83.1233 50.462C84.3487 50.462 85.875 49.4503 86.548 48.192C86.9061 47.5224 86.9247 47.2923 86.9247 43.4942C86.9247 39.6961 86.9061 39.466 86.548 38.7965C85.875 37.5382 84.3487 36.5265 83.1233 36.5265C82.7815 36.5265 82.7606 36.4434 82.7606 35.082V33.6375L83.228 33.6337C83.855 33.6288 85.1132 33.0435 85.7081 32.4803C85.9736 32.2288 86.356 31.7171 86.5579 31.3432C86.8964 30.7156 86.9287 30.3745 86.9787 26.898C87.0297 23.3366 87.0125 23.0858 86.6609 22.2683C86.2548 21.3243 85.2575 20.3147 84.362 19.9404C83.8854 19.7413 81.0791 19.7027 67.3423 19.7057C51.7792 19.7093 50.8564 19.7261 50.2097 20.02ZM35.9698 22.8312L36.4467 23.2414V26.6504C36.4467 29.9711 36.4367 30.0691 36.0595 30.4462L35.6725 30.8334L19.9983 30.881C11.3777 30.9071 4.1503 30.8861 3.93768 30.8342C3.72489 30.7822 3.39993 30.5888 3.21535 30.4043C2.90347 30.0924 2.87968 29.8275 2.87968 26.6621C2.87968 23.2717 2.88172 23.2533 3.29693 22.8383L3.71401 22.4211H19.6035H35.4929L35.9698 22.8312ZM83.7031 22.8383C84.1183 23.2533 84.1203 23.2717 84.1203 26.6621C84.1203 29.8275 84.0965 30.0924 83.7847 30.4043C83.6001 30.5888 83.2751 30.7822 83.0623 30.8342C82.8497 30.8861 75.6223 30.9071 67.0017 30.881L51.3275 30.8334L50.9405 30.4462C50.5634 30.0691 50.5533 29.9711 50.5533 26.6504V23.2414L51.0302 22.8312L51.5071 22.4211H67.3965H83.286L83.7031 22.8383ZM32.2827 35.082V36.5265H19.6207H6.95871V35.082V33.6375H19.6207H32.2827V35.082ZM80.0413 35.082V36.5265H67.3793H54.7173V35.082V33.6375H67.3793H80.0413V35.082ZM36.0595 39.7177C36.4365 40.0947 36.4467 40.1937 36.4467 43.4942C36.4467 46.7949 36.4365 46.8938 36.0595 47.2707L35.6723 47.6579H19.601H3.52944L3.20464 47.2566C2.90959 46.8924 2.87968 46.5514 2.87968 43.5491C2.87968 40.1035 2.95429 39.6832 3.61306 39.4154C3.82228 39.3302 10.8999 39.2789 19.8284 39.2975L35.6725 39.3306L36.0595 39.7177ZM83.7955 39.7318C84.0907 40.0965 84.1203 40.4381 84.1203 43.4942C84.1203 46.5505 84.0909 46.8919 83.7954 47.2566L83.4706 47.6579H67.399H51.3277L50.9405 47.2712C50.5688 46.8999 50.5514 46.7572 50.5078 43.7024C50.4588 40.2709 50.5373 39.8618 51.3215 39.4625C51.654 39.2932 55.0963 39.2565 67.6069 39.2891L83.4706 39.3306L83.7955 39.7318ZM32.2827 51.9065V53.351H19.6207H6.95871V51.9065V50.462H19.6207H32.2827V51.9065ZM80.0413 51.9065V53.351H67.3793H54.7173V51.9065V50.462H67.3793H80.0413V51.9065ZM36.0595 56.5422C36.4367 56.9193 36.4467 57.0174 36.4467 60.3381V63.747L35.9698 64.1573L35.4929 64.5673H19.6035H3.71401L3.29693 64.1501C2.88189 63.7353 2.87968 63.7147 2.87968 60.359C2.87968 56.8451 2.91265 56.6683 3.6445 56.2649C3.88669 56.1313 8.53593 56.0886 19.8284 56.1163L35.6725 56.1551L36.0595 56.5422ZM83.4282 56.3187C83.6929 56.4556 83.9566 56.6911 84.0148 56.8425C84.0727 56.9938 84.1203 58.606 84.1203 60.4253C84.1203 63.7107 84.1174 63.736 83.7031 64.1501L83.286 64.5673H67.3965H51.5071L51.0302 64.1576L50.5533 63.7477L50.5078 60.5463C50.4588 57.0939 50.5368 56.6853 51.3215 56.2883C51.6504 56.122 55.1718 56.0745 67.3453 56.0727C80.7096 56.0705 83.0164 56.1058 83.4282 56.3187ZM19.0908 73.761C15.9236 75.733 13.1831 77.4902 13.0008 77.666C12.5601 78.0907 12.5601 79.0848 13.0008 79.5095C13.6988 80.1822 24.8616 87 25.2649 87C25.4976 87 25.899 86.7813 26.1772 86.5033C26.6572 86.0233 26.674 85.9513 26.674 84.379V82.7514H49.7885H72.903V81.3918V80.0323L48.8112 80.0377C29.3155 80.0421 24.6641 80.0853 24.4287 80.2639C24.0242 80.5714 23.7847 81.2792 23.7847 82.1676C23.7847 82.5821 23.7538 82.9213 23.716 82.9213C23.5167 82.9213 16.9347 78.7268 16.9194 78.59C16.9037 78.4494 23.3535 74.2979 23.6368 74.2661C23.6956 74.2596 23.7769 74.712 23.8175 75.2715C23.8731 76.041 23.9888 76.3929 24.2924 76.716L24.6938 77.1432H47.4386H70.1836V75.7837V74.4241H48.4288H26.674V72.8834C26.674 70.9015 26.3125 70.1934 25.2943 70.1809C25.0043 70.1774 22.844 71.4243 19.0908 73.761ZM72.903 75.7837V77.1432H74.3476H75.7923V75.7837V74.4241H74.3476H72.903V75.7837ZM78.5117 75.7837V77.1432H79.9563H81.401V75.7837V74.4241H79.9563H78.5117V75.7837Z" fill="#002882"/>
</svg>
