<svg width="104" height="93" viewBox="0 0 104 93" fill="none" xmlns="http://www.w3.org/2000/svg">
<path fill-rule="evenodd" clip-rule="evenodd" d="M47.6313 0.264195C41.8277 1.18024 36.7279 3.72701 32.5276 7.80657C28.5176 11.7015 25.9962 16.0663 24.6445 21.4526C23.9412 24.2544 23.7525 29.2887 24.2357 32.3519C25.491 40.3101 30.1476 47.3697 37.0816 51.8273C39.4694 53.3624 43.0369 54.7854 46.3105 55.5091C48.897 56.0807 54.2855 56.1238 56.9456 55.5941C62.7584 54.4367 67.9085 51.589 72.0263 47.2553C77.0631 41.9545 79.654 35.4797 79.6826 28.122C79.7058 22.2277 78.1829 17.1757 74.8974 12.2472L73.7835 10.5763H86.3708C100.262 10.5763 99.764 10.5312 100.572 11.8615C100.959 12.4996 100.969 13.0743 100.969 36.9458L100.97 61.3771H94.5841H88.1981L87.7771 61.9146C87.2966 62.5279 87.2642 62.7881 87.5814 63.4872C87.9858 64.3782 88.4408 64.4373 94.8836 64.4373H100.97V68.6399C100.97 73.3313 100.833 73.9579 99.6725 74.5963C99.081 74.9215 95.9541 74.9443 52 74.9443C5.672 74.9443 4.95046 74.9382 4.30328 74.5453C3.14142 73.8396 3.03007 73.3232 3.03007 68.6414V64.4404L42.4285 64.388C80.8478 64.3366 81.8375 64.3257 82.2547 63.9467C82.8129 63.4395 82.8236 62.3349 82.276 61.7851C81.8725 61.3799 81.5988 61.3771 42.4498 61.3771H3.03007L3.03088 36.9458C3.03149 13.0743 3.04063 12.4996 3.42833 11.8615C4.22079 10.5561 4.04401 10.5763 14.6654 10.5763C24.0693 10.5763 24.2991 10.5667 24.7335 10.1603C25.3782 9.55726 25.3345 8.48514 24.6429 7.93898C24.1184 7.52462 23.9118 7.51605 14.5201 7.51605C3.32957 7.51605 3.42223 7.50381 1.71032 9.22267C-0.179599 11.12 -0.0304537 8.10872 0.0303015 43.1267L0.0837418 73.9242L0.531177 74.764C1.25252 76.1176 1.95659 76.8242 3.19181 77.4332L4.35083 78.0046L21.6732 78.0632L38.9955 78.1217V84.0307V89.9397H36.483C34.2489 89.9397 33.9112 89.9866 33.4351 90.3626C32.7353 90.9153 32.7052 91.9293 33.3699 92.5565L33.8403 93H51.8606C69.6103 93 69.8872 92.9939 70.2875 92.592C70.8926 91.9844 70.8295 90.8925 70.1585 90.3626C69.6824 89.9866 69.3447 89.9397 67.1106 89.9397H64.5981V84.0307V78.1215L82.1236 78.0632L99.6492 78.0046L100.808 77.4332C102.043 76.8242 102.747 76.1176 103.469 74.764L103.916 73.9242L103.97 43.1267C104.03 8.10872 104.18 11.12 102.29 9.22267C100.522 7.44791 101.213 7.51605 84.9828 7.51605H70.8983L70.1357 6.83809C67.8789 4.83198 66.9301 4.37497 66.0284 4.85952C65.545 5.11944 65.2197 6.07323 65.4249 6.6302C65.5137 6.87135 66.2098 7.57317 66.9718 8.19013C73.3174 13.3281 76.6299 20.123 76.639 28.02C76.6439 32.3076 75.7801 35.8208 73.7853 39.6254C70.2806 46.3094 64.1913 50.8909 56.632 52.5312C54.378 53.0204 49.1014 53.0215 46.953 52.5332C41.8685 51.3775 37.853 49.1967 34.3119 45.6676C30.5961 41.9644 28.2016 37.395 27.3216 32.3278C26.9168 29.9979 26.9166 25.8021 27.321 23.605C28.7576 15.7998 33.8064 9.09108 40.9259 5.52727C46.0442 2.9652 52.6169 2.3409 58.2421 3.88247C59.1116 4.12077 60.091 4.31356 60.4188 4.31112C61.4931 4.30295 62.1079 2.98622 61.4994 1.99713C61.173 1.46689 58.6538 0.684475 55.9588 0.276641C53.5526 -0.0873291 49.8943 -0.0928378 47.6313 0.264195ZM34.7284 13.2286C34.0681 13.8916 34.1168 14.7587 34.8518 15.4218C35.2596 15.7896 35.602 15.8808 36.5749 15.8808C37.3612 15.8808 37.8219 15.9706 37.882 16.1359C37.9905 16.4339 42.4498 40.1195 42.4498 40.3978C42.4498 40.8672 43.4746 41.5872 44.1427 41.5872H44.8378L44.5265 42.4565C44.1173 43.599 44.3158 44.6036 45.1123 45.4216C46.1724 46.5102 48.0259 46.5534 48.9933 45.5121C50.0241 44.4023 50.2015 43.5631 49.6736 42.2948L49.3792 41.5872H52.4048H55.4301L55.1388 42.1483C54.7283 42.9382 54.7754 44.2248 55.243 44.9945C56.2842 46.7091 58.9161 46.6832 60.049 44.9472C60.4966 44.2613 60.4998 42.7946 60.0555 42.1134L59.7121 41.5872H60.6037C62.3436 41.5872 63.2287 40.0391 62.0984 38.9729C61.6367 38.5375 61.5209 38.531 53.4201 38.4784L45.2096 38.4249L45.0648 37.7141C44.9853 37.3232 44.862 36.6145 44.7911 36.1393L44.662 35.2751L53.5053 35.2179C61.4945 35.1661 62.382 35.1274 62.6923 34.8154C62.9355 34.5712 63.4419 32.3327 64.4229 27.1647C65.1857 23.1468 65.8116 19.5566 65.8136 19.187C65.816 18.7416 65.6488 18.3454 65.3184 18.0138L64.8198 17.513H53.0517H41.2835L41.0478 16.3099C40.5677 13.8596 39.2855 12.8293 36.7096 12.8238C35.4031 12.8212 35.0655 12.8901 34.7284 13.2286ZM89.7983 16.5525C88.9979 16.9566 88.7846 17.6395 88.7813 19.8082L88.7783 21.7974H86.5579C84.4012 21.7974 84.3254 21.8129 83.9164 22.335C83.4359 22.9482 83.4035 23.2084 83.7207 23.9075C84.0586 24.652 84.7373 24.8577 86.8575 24.8577H88.7783V26.6634C88.7783 28.7828 89.0152 29.6111 89.7123 29.93C90.4215 30.2544 90.6777 30.2236 91.2908 29.7392C91.8103 29.3289 91.8262 29.251 91.8262 27.1051V24.8938L94.0794 24.8246C96.2749 24.7575 96.3454 24.7406 96.8374 24.1658C97.2153 23.7243 97.309 23.4424 97.2098 23.0437C96.9369 21.9453 96.6315 21.8149 94.1881 21.7529L91.9278 21.6954L91.8705 19.4259C91.8241 17.5844 91.7475 17.0984 91.4641 16.8489C90.9264 16.375 90.3518 16.2727 89.7983 16.5525ZM46.9201 21.1545C46.9201 21.4742 46.9793 22.4382 47.0516 23.2967L47.1829 24.8577H44.9181C43.6723 24.8577 42.653 24.8216 42.653 24.7775C42.653 24.6961 42.1075 21.8714 41.9299 21.0323C41.8329 20.5755 41.8449 20.5733 44.3763 20.5733H46.9201V21.1545ZM54.5308 22.4604C54.4617 23.4985 54.3699 24.4625 54.3266 24.6026C54.2705 24.7842 53.6688 24.8577 52.2394 24.8577H50.2308L50.0995 23.2967C50.0272 22.4382 49.9681 21.4742 49.9681 21.1545V20.5733H52.3121H54.6562L54.5308 22.4604ZM62.5661 20.6528C62.5661 20.6965 62.3833 21.6248 62.1597 22.7155C61.9362 23.8061 61.7534 24.7344 61.7534 24.7781C61.7534 24.822 60.7933 24.8577 59.6198 24.8577H57.4863L57.4881 23.7866C57.4889 23.1976 57.5474 22.2334 57.6179 21.6444L57.7461 20.5733H60.156C61.4817 20.5733 62.5661 20.609 62.5661 20.6528ZM47.4082 28.581C47.4633 28.9456 47.5594 29.9096 47.622 30.7232L47.7358 32.2023H45.9192C44.3648 32.2023 44.0876 32.1509 43.9976 31.8453C43.9005 31.5148 43.2626 28.1762 43.2626 27.9975C43.2626 27.9536 44.1729 27.9179 45.2854 27.9179H47.308L47.4082 28.581ZM54.0305 28.683C54.0297 29.1039 53.9708 30.0677 53.8995 30.8252L53.77 32.2023H52.29H50.8101L50.7008 31.1312C50.6406 30.5422 50.5561 29.578 50.5128 28.989L50.4342 27.9179H52.2331H54.032L54.0305 28.683ZM61.1438 27.9975C61.1438 28.1762 60.5059 31.5148 60.4088 31.8453C60.3192 32.1493 60.0451 32.2023 58.5608 32.2023H56.818L56.9474 30.8252C57.0187 30.0677 57.0776 29.1039 57.0785 28.683L57.0799 27.9179H59.1118C60.2294 27.9179 61.1438 27.9536 61.1438 27.9975ZM9.19113 47.5423C8.21397 48.0167 8.15911 49.6364 9.10274 50.1436C9.35511 50.2792 11.3539 50.36 14.452 50.36C19.8131 50.36 20.1189 50.3023 20.3843 49.241C20.5329 48.6467 20.0775 47.6176 19.5813 47.4264C19.0099 47.2063 9.66884 47.3104 9.19113 47.5423ZM8.99119 54.5377C8.75548 54.7034 8.50474 55.0714 8.43362 55.3554C8.28509 55.9497 8.74045 56.9788 9.23665 57.17C9.41749 57.2396 13.5397 57.2967 18.3971 57.2967H27.2287L27.7274 56.7958C28.4062 56.1144 28.3908 55.212 27.6908 54.6593C27.1678 54.2462 26.9514 54.2364 18.2876 54.2364C10.796 54.2364 9.35308 54.2831 8.99119 54.5377ZM61.5502 84.0232V89.9397H51.7968H42.0435V84.0232V78.1066H51.7968H61.5502V84.0232Z" fill="#002882"/>
</svg>
