<svg width="97" height="87" viewBox="0 0 97 87" fill="none" xmlns="http://www.w3.org/2000/svg">
<path d="M0 54.7867C0 37.55 0 20.3133 0 3.0766C0.990208 0.640129 2.8519 -0.00527513 5.29963 -9.11622e-05C29.6658 0.0491566 54.032 0.0284207 78.4007 0.0310127C81.3865 0.0310127 82.9729 1.651 82.9754 4.68363C82.9754 16.148 82.9754 27.6149 82.9754 39.0793C82.9754 39.4577 82.9754 39.8361 82.9754 40.2923C84.827 40.2923 86.5573 40.2742 88.2902 40.2975C90.1367 40.3234 91.5387 41.2928 91.9909 42.8999C92.1626 43.509 92.203 44.1751 92.203 44.8179C92.2157 55.5384 92.2106 66.2588 92.2106 76.9793C92.2106 77.3836 92.2106 77.788 92.2106 78.2701C94.1178 78.2753 96.0426 77.902 97 80.0612C97 80.5796 97 81.098 97 81.6163C96.8105 82.1218 96.5984 82.6194 96.4342 83.1301C95.6359 85.6054 93.8879 86.974 91.3568 86.9869C86.2416 87.0103 81.1264 86.9999 76.0111 86.9895C74.7228 86.9869 74.0155 86.3571 74.0383 85.2944C74.0585 84.2654 74.7203 83.721 75.9985 83.7184C78.618 83.7107 81.24 83.7159 83.8595 83.7159C86.3224 83.7159 88.7853 83.7314 91.2482 83.7081C92.6678 83.6951 93.3499 82.9953 93.3777 81.6086C72.995 81.6086 52.6149 81.6086 32.2272 81.6086C32.3662 83.156 33.0053 83.7133 34.6396 83.7133C44.9004 83.7159 55.1612 83.7159 65.4245 83.7159C65.7705 83.7159 66.1217 83.7055 66.4652 83.7392C67.3089 83.8195 67.7914 84.3327 67.8773 85.1726C67.9606 86.0124 67.5842 86.6344 66.7759 86.8651C66.3591 86.9844 65.9044 86.9895 65.4674 86.9895C55.3001 86.9947 45.1353 86.9947 34.968 86.9947C31.5679 86.9947 30.0018 85.8465 29.0267 82.5028C28.8019 81.7304 28.4735 81.5179 27.7183 81.5308C24.9093 81.5775 22.0978 81.5697 19.2889 81.5412C17.5939 81.5256 16.389 80.4422 16.2854 78.9285C16.1692 77.2618 17.1038 76.111 18.8367 75.7844C22.2393 75.1442 24.447 72.49 24.4824 68.9286C24.5127 66.1422 24.49 63.3558 24.49 60.5694C24.49 59.7037 24.49 58.838 24.49 57.8686C24.0176 57.8686 23.6488 57.8686 23.2775 57.8686C17.2781 57.8686 11.2788 57.8012 5.28195 57.8997C2.81654 57.9412 0.975052 57.2284 0 54.7867ZM73.7074 12.851C52.188 12.851 30.7192 12.851 9.2731 12.851C9.2731 23.701 9.2731 34.4681 9.2731 45.2456C17.3539 45.2456 25.3589 45.2456 33.364 45.2456C33.4372 44.4784 33.4322 43.7526 33.5888 43.0683C33.9854 41.311 35.506 40.2949 37.6456 40.2923C49.2629 40.2897 60.8776 40.2897 72.4949 40.2897C72.8915 40.2897 73.2855 40.2897 73.7099 40.2897C73.7074 31.0519 73.7074 21.9644 73.7074 12.851ZM79.7749 40.199C79.7749 39.7869 79.7749 39.4344 79.7749 39.0845C79.7749 27.7134 79.7749 16.345 79.7749 4.97393C79.7749 3.41615 79.6739 3.30987 78.1785 3.30987C53.7112 3.30987 29.2465 3.30987 4.77927 3.30987C3.28385 3.30987 3.19797 3.39541 3.19797 4.88321C3.19797 20.9172 3.19797 36.9538 3.19797 52.9879C3.19797 54.499 3.28385 54.5871 4.75148 54.5871C13.9387 54.5871 23.1259 54.5871 32.3106 54.5871C32.6491 54.5871 32.9901 54.5871 33.3564 54.5871C33.3564 52.5446 33.3564 50.5929 33.3564 48.5893C32.8966 48.5893 32.5203 48.5893 32.1414 48.5893C24.2172 48.5893 16.293 48.5893 8.36878 48.5893C6.37068 48.5893 5.98924 48.2031 5.98924 46.1554C5.98924 34.7533 5.98924 23.3511 5.98924 11.9464C5.98924 9.88833 6.37573 9.48658 8.34604 9.48658C30.4439 9.48658 52.5442 9.48658 74.642 9.48658C76.5643 9.48658 76.9559 9.89352 76.9584 11.8816C76.9584 20.531 76.9584 29.1805 76.9584 37.8299C76.9609 40.5593 76.9609 40.5593 79.7749 40.199ZM36.6428 78.2079C54.1609 78.2079 71.535 78.2079 89.0101 78.2079C89.0101 77.7984 89.0101 77.4484 89.0101 77.1011C89.0101 66.4144 89.0101 55.725 89.0101 45.0382C89.0101 43.5712 89.0076 43.5686 87.6006 43.5686C71.0929 43.5686 54.5852 43.5686 38.0776 43.5686C36.6428 43.5686 36.6402 43.5712 36.6402 44.9968C36.6402 55.6835 36.6402 66.3729 36.6402 77.0596C36.6428 77.4096 36.6428 77.7595 36.6428 78.2079ZM33.3766 78.2234C33.3766 71.4298 33.3766 64.6881 33.3766 57.936C31.4669 57.936 29.6229 57.936 27.6905 57.936C27.6905 58.3481 27.6905 58.698 27.6905 59.0479C27.6879 62.446 27.7284 65.8467 27.6677 69.2422C27.5995 72.9254 25.9096 75.7014 22.9213 77.6817C22.699 77.8295 22.4767 77.9798 22.118 78.2208C25.9728 78.2234 29.6431 78.2234 33.3766 78.2234Z" fill="#002882"/>
</svg>
