<svg width="91" height="91" viewBox="0 0 91 91" fill="none" xmlns="http://www.w3.org/2000/svg">
<path fill-rule="evenodd" clip-rule="evenodd" d="M27.0663 0.215846C24.4817 0.850885 22.4134 2.83603 21.6216 5.44144C21.4248 6.08911 21.3715 7.83133 21.3701 13.6783L21.3682 21.0939L19.8991 21.8566C14.3044 24.7613 10.3846 30.1887 9.40894 36.381L9.18083 37.8281H6.9053H4.62977V39.3343V40.8405L6.88999 40.8903L9.15002 40.9401L9.46342 42.7151C10.9667 51.2297 17.4423 57.5681 25.9839 58.8855L27.3334 59.0936L27.3833 61.3537L27.4332 63.6137H28.9414H30.4496V61.3375V59.0614L32.0077 58.8377C36.1658 58.2407 40.0514 56.1928 43.1283 52.9767C45.8942 50.0855 47.6512 46.6359 48.2625 42.8963C48.3745 42.2116 48.5006 41.4715 48.5428 41.2513C48.6176 40.8608 48.6749 40.8512 50.938 40.8512H53.2568L53.2049 39.3841L53.1533 37.917L50.8384 37.8281C48.5273 37.7393 48.5235 37.7384 48.4769 37.2946C48.1492 34.1674 46.8915 30.8115 45.0505 28.152C43.9721 26.594 41.516 24.1727 39.9081 23.082C37.6635 21.5598 34.1677 20.2236 31.6071 19.9088L30.5387 19.7774L30.4496 17.4659L30.3606 15.1545L28.8967 15.1029L27.433 15.0513L27.3831 17.4147L27.3334 19.7781L26.2146 19.9013C25.5994 19.9691 24.9382 20.0745 24.7456 20.1355C24.4042 20.2438 24.3953 20.143 24.3953 16.1445V12.0424H36.5039H48.6126V10.5308V9.01925H36.5039H24.3953V7.72036C24.3953 6.674 24.4865 6.23902 24.8642 5.48217C25.4363 4.33551 26.6124 3.42092 27.8676 3.14634C28.4889 3.0103 34.0085 2.96815 46.1271 3.00674L63.4964 3.06187L64.4407 3.55127L65.385 4.04066L66.2139 3.12643C67.4199 1.79606 67.4153 1.83287 66.4552 1.21757C64.4816 -0.0471677 65.9899 0.0422819 46.0306 0.00707108C31.4297 -0.0187146 27.8614 0.0205863 27.0663 0.215846ZM0.893901 6.22444C0.034189 6.65888 0.00534204 6.89771 0.00267102 13.6073C-0.000178071 20.1939 0.0564475 20.713 0.809319 21.0014C0.9678 21.062 4.76296 21.1118 9.24298 21.1118H17.3885L17.7758 20.7003C18.1588 20.2929 18.1629 20.2202 18.1629 13.6904C18.1629 10.0613 18.1131 6.96262 18.0524 6.80435C17.7561 6.03327 17.344 5.99592 9.13489 5.99877C3.23656 6.00073 1.22778 6.05568 0.893901 6.22444ZM52.5336 6.22302C51.6465 6.67418 51.6451 6.68912 51.6424 16.6305C51.6394 26.8818 51.6264 26.7548 52.7293 27.1389C53.128 27.2776 58.2133 27.336 69.9239 27.336C87.7086 27.336 87.4834 27.3468 87.9514 26.4735C88.0822 26.2291 88.1437 23.0751 88.1437 16.5988V7.08301L87.714 6.58402L87.2843 6.08502L70.1298 6.04181C56.5941 6.00766 52.8821 6.0459 52.5336 6.22302ZM15.1358 13.554V18.0887H9.08147H3.02716V13.554V9.01925H9.08147H15.1358V13.554ZM85.074 16.6216L85.0275 24.2239H69.8917H54.7559L54.7094 16.6216L54.6631 9.01925H69.8917H85.1202L85.074 16.6216ZM6.05431 13.554V15.0655H9.08147H12.1086V13.554V12.0424H9.08147H6.05431V13.554ZM57.8128 12.161C57.7475 12.2261 57.694 12.9063 57.694 13.6726V15.0655H60.7212H63.7483V13.554V12.0424H60.84C59.2402 12.0424 57.878 12.0957 57.8128 12.161ZM66.9536 13.554V15.0655H74.5215H82.0894V13.554V12.0424H74.5215H66.9536V13.554ZM57.8128 18.2073C57.7475 18.2724 57.694 18.9526 57.694 19.7189V21.1118H69.8917H82.0894V19.6003V18.0887H70.0105C63.3669 18.0887 57.878 18.142 57.8128 18.2073ZM27.4225 24.3128V25.7355H28.9361H30.4496V24.2883V22.8413L31.4333 22.9567C32.9581 23.1356 35.5513 24.0429 37.1897 24.9704C39.0177 26.0056 41.5255 28.3181 42.6473 30.0034C44.0818 32.1586 45.0015 34.4925 45.3979 36.9834L45.5322 37.8281H44.0453H42.5583V39.3396V40.8512H43.9828H45.4073V41.5426C45.4073 42.4296 44.6498 45.0644 43.981 46.5033C43.2618 48.0507 41.8841 49.9886 40.6068 51.2489L39.5311 52.3102V51.5926C39.5311 49.231 38.4127 46.2898 36.83 44.4898C36.2897 43.8751 34.3878 42.3713 33.9702 42.2287C33.8256 42.1793 34.0231 41.8472 34.5167 41.31C37.1795 38.4114 37.0786 34.0178 34.2818 31.0896C31.7885 28.4791 27.8383 28.0226 24.7908 29.9931C23.4841 30.838 22.7001 31.7409 22.0097 33.1961C21.4958 34.2787 21.4572 34.4973 21.4572 36.3165C21.4572 38.1403 21.4949 38.3523 22.016 39.4504C22.3233 40.0983 22.8643 40.9483 23.2179 41.3394C23.5718 41.7302 23.8611 42.093 23.8611 42.1451C23.8611 42.1974 23.5167 42.4416 23.0958 42.688C22.1292 43.2537 20.5731 44.8448 19.8204 46.037C19.0647 47.2338 18.5449 48.8256 18.3536 50.5278C18.2691 51.2821 18.143 51.9543 18.0735 52.0214C18.0041 52.0886 17.4653 51.6234 16.8762 50.9876C14.567 48.4953 13.2251 45.9433 12.5449 42.7513C12.1213 40.763 12.0671 40.8512 13.7112 40.8512H15.1358V39.3396V37.8281H13.6945H12.2532L12.3791 36.8944C12.6979 34.5279 14.1231 31.2376 15.7364 29.1436C17.341 27.0612 19.8777 25.1099 22.3043 24.0918C23.7965 23.4656 25.8597 22.9131 26.7547 22.8999L27.4225 22.8902V24.3128ZM66.9635 38.0504L66.9805 45.7416L62.8607 49.3872L58.7409 53.0327L57.2619 53.3212C53.0201 54.1483 49.7775 57.3528 48.874 61.6103C48.7337 62.272 48.6174 63.7395 48.6156 64.8714C48.6111 67.9324 48.4502 68.2879 46.2368 70.1279C45.2797 70.9233 45.4592 72.1443 46.6034 72.6218C47.6076 73.0408 59.1104 72.8786 60.5431 72.4253C64.5687 71.1517 67.3056 68.1698 68.1676 64.1188L68.4842 62.6305L79.398 50.2804C85.4007 43.4878 90.4651 37.6303 90.6523 37.2638C91.0658 36.4547 91.1245 34.0408 90.7527 33.1543C90.3966 32.3057 89.6352 31.4805 88.7037 30.9335C87.9781 30.5076 87.6908 30.448 86.363 30.448C85.0346 30.448 84.7515 30.5069 84.0481 30.9287C83.6074 31.1931 80.282 34.0285 76.6583 37.2295L70.0698 43.0497L70.0229 36.7043L69.9763 30.3591H68.4613H66.9464L66.9635 38.0504ZM30.7151 32.2143C34.2279 33.6799 34.2314 38.9258 30.7206 40.5185C29.1592 41.227 26.7846 40.7518 25.6078 39.4954C24.138 37.9264 23.9847 35.2603 25.2703 33.628C26.5398 32.0163 28.821 31.4238 30.7151 32.2143ZM87.4873 33.8117C88.0094 34.2951 88.2327 34.96 88.0785 35.5733C87.9866 35.9389 67.1413 59.7228 66.814 59.8353C66.5704 59.9191 61.5629 54.7668 61.6894 54.5624C61.8233 54.346 83.8412 34.904 85.0193 33.962C85.9264 33.2366 86.8078 33.1829 87.4873 33.8117ZM32.0633 44.6988C34.224 45.7126 35.8663 47.8558 36.3221 50.2569C36.4222 50.7833 36.5039 51.9092 36.5039 52.7587V54.3033L35.3225 54.7879C34.0922 55.2924 31.544 55.9636 30.8503 55.9657C30.4681 55.9669 30.4496 55.9015 30.4496 54.5443V53.1216H28.9361H27.4225V54.5443C27.4225 55.8581 27.3947 55.9669 27.0589 55.9669C26.2789 55.9669 23.9801 55.3943 22.7498 54.8937C22.0388 54.6044 21.4373 54.3673 21.4127 54.367C21.3881 54.3668 21.3682 53.4204 21.3682 52.2641C21.3682 49.4113 21.8392 48.0499 23.4001 46.3901C25.0259 44.6614 26.5813 44.0392 29.1141 44.1045C30.6776 44.1448 31.0374 44.2174 32.0633 44.6988ZM62.0036 59.4791L65.3305 62.8135L65.1681 63.6577C64.573 66.7523 61.9402 69.182 58.6734 69.6517C57.2286 69.8594 50.9246 69.9024 50.9333 69.7045C50.9365 69.631 51.0941 69.131 51.2836 68.593C51.5478 67.8428 51.6301 67.1179 51.6371 65.481C51.6474 62.9918 51.9626 61.2934 52.6469 60.0375C53.2119 59.0009 54.8385 57.4264 55.8446 56.9424C56.5571 56.5995 57.9326 56.178 58.4081 56.1567C58.5559 56.1501 60.174 57.6453 62.0036 59.4791ZM21.3682 64.4069V68.2374H11.2046H1.04099L0.520493 68.7572L0 69.277V75.7044C0 82.2646 0.0329426 82.6162 0.69678 83.1251C0.914379 83.2919 4.95723 83.3431 18.2628 83.3474C35.3828 83.3531 35.55 83.3497 35.9339 82.9925C36.1471 82.7942 36.3659 82.4542 36.4201 82.2367C36.4744 82.0194 36.4954 78.9736 36.4667 75.4684L36.4149 69.0954L35.9152 68.6663L35.4156 68.2374H29.909H24.4024L24.3544 64.4584L24.3063 60.6795L22.8372 60.6279L21.3682 60.5762V64.4069ZM66.9133 72.8165L66.8645 75.7952L53.1978 75.8408L39.5311 75.8863V77.3968V78.9073H53.2641H66.9968L66.9237 81.6299C66.8553 84.1672 66.8168 84.4212 66.3565 85.3608C66.0848 85.9153 65.5671 86.6135 65.206 86.9122C63.865 88.0221 64.4889 87.9901 45.2136 87.9365C25.4648 87.8816 27.0345 87.9981 25.5998 86.4817L24.8741 85.7149L23.6554 86.4166C22.985 86.8025 22.4366 87.2128 22.4366 87.3284C22.4366 87.7262 23.9998 89.3117 24.9534 89.881C26.8877 91.0356 26.234 90.9999 45.4205 90.9999C56.4367 90.9999 63.1609 90.9337 63.7687 90.8194C66.8734 90.235 69.3984 87.5062 69.8142 84.2853C69.8994 83.6259 69.9716 80.1055 69.9749 76.4621L69.9807 69.8379H68.4714H66.9621L66.9133 72.8165ZM33.4768 75.7952V80.33H18.252H3.02716V75.7952V71.2605H18.252H33.4768V75.7952ZM6.05431 75.7952V77.3068H9.88277H13.7112V75.7952V74.2837H9.88277H6.05431V75.7952ZM16.7384 75.7952V77.3068H23.594H30.4496V75.7952V74.2837H23.594H16.7384V75.7952ZM44.1609 83.442V84.9536H45.6744H47.188V83.442V81.9304H45.6744H44.1609V83.442Z" fill="#002882"/>
</svg>
