<svg width="77" height="90" viewBox="0 0 77 90" fill="none" xmlns="http://www.w3.org/2000/svg">
<path d="M49.7546 0C50.5379 0.447481 50.7968 1.13627 50.7718 2.04764C50.7264 3.71339 50.7582 5.38383 50.7582 7.05193C52.15 7.67747 53.5077 8.31238 54.8904 8.88169C55.0834 8.96134 55.4694 8.77392 55.6555 8.58883C56.7408 7.51347 57.7875 6.40062 58.8569 5.30886C59.7537 4.39282 60.4643 4.37173 61.3453 5.28075C64.8781 8.92386 68.4018 12.5763 71.9188 16.2358C72.7679 17.1191 72.7565 17.8383 71.9051 18.7357C70.8516 19.8438 69.7959 20.9496 68.7152 22.0297C68.361 22.3834 68.2701 22.6599 68.4972 23.1589C69.0149 24.2929 69.4621 25.4619 69.8935 26.6357C70.0479 27.0551 70.2454 27.2237 70.6904 27.2167C72.223 27.1909 73.7555 27.198 75.2881 27.2097C76.5119 27.2191 76.9955 27.7157 76.9955 28.9598C77 34.1421 77 39.3268 76.9955 44.5092C76.9932 45.6876 76.4801 46.2054 75.3267 46.2101C73.7941 46.2171 72.2616 46.2335 70.729 46.1984C70.2477 46.1866 70.0434 46.3577 69.8799 46.8122C69.453 47.9859 68.9944 49.1527 68.4858 50.2913C68.2815 50.7505 68.3496 51.0152 68.6834 51.3479C69.7437 52.4069 70.779 53.4939 71.8143 54.5787C72.7838 55.5955 72.7929 56.2796 71.837 57.2706C68.3746 60.8622 64.9099 64.4514 61.4406 68.0359C60.4643 69.0457 59.756 69.0363 58.7638 68.0172C57.8647 67.0941 56.9747 66.1593 56.0551 65.2058C49.7773 78.6326 32.8784 83.7048 20.3478 74.5513C19.4169 75.5307 18.4883 76.5076 17.5483 77.4939C18.3884 78.8692 18.3475 79.2113 17.151 80.4459C14.3425 83.3464 11.5339 86.2444 8.7231 89.1425C7.59923 90.2999 7.00664 90.2929 5.8646 89.1191C4.15723 87.3596 2.44985 85.6025 0.749282 83.8383C-0.256526 82.7958 -0.249715 82.1328 0.769716 81.0785C3.61686 78.1359 6.46854 75.198 9.31795 72.2577C10.4668 71.0746 10.8392 71.0324 12.1356 71.9133C13.0733 70.9387 14.0087 69.9688 14.9827 68.9567C10.3851 61.9961 9.32931 54.417 11.8495 46.2148C10.4396 46.2148 9.11588 46.2194 7.79221 46.2124C6.60477 46.2077 6.05532 45.6876 6.05305 44.4623C6.03716 39.3081 6.03943 34.1538 6.05078 28.9996C6.05305 27.7181 6.57979 27.2167 7.83989 27.2097C9.31568 27.2003 10.7915 27.1839 12.2673 27.2191C12.8167 27.2331 13.0415 27.0363 13.2254 26.5021C13.6818 25.1831 14.2312 23.8993 14.8056 22.449C13.6976 21.3198 12.5057 20.1156 11.325 18.902C10.2761 17.8266 10.2715 17.1402 11.3023 16.0742C14.7284 12.5271 18.1545 8.98243 21.5829 5.43772C22.6523 4.3319 23.2812 4.33659 24.371 5.45881C25.395 6.51308 26.4235 7.56501 27.427 8.64038C27.7313 8.96603 27.9742 9.01054 28.3852 8.81843C29.4909 8.29832 30.6193 7.82273 31.7568 7.37993C32.195 7.2089 32.3698 6.99571 32.3585 6.49668C32.3267 5.0043 32.3789 3.50957 32.3358 2.01718C32.3108 1.1597 32.5287 0.480281 33.2371 0C38.743 0 44.2488 0 49.7546 0ZM14.0564 17.5806C15.094 18.6302 16.1497 19.6868 17.1941 20.7552C18.2612 21.8493 18.2522 22.1374 17.646 23.5127C16.9217 25.1574 16.2564 26.8325 15.6434 28.5264C15.1417 29.9133 14.8601 30.1874 13.4365 30.1898C11.9721 30.1921 10.5077 30.1898 9.01826 30.1898C9.01826 34.5966 9.01826 38.8864 9.01826 43.2394C10.0354 43.2394 11.0004 43.2042 11.9608 43.2511C12.7191 43.2886 13.2822 43.1948 13.6545 42.3561C13.9724 41.6415 14.7557 41.4893 15.4141 41.8032C16.1043 42.1312 16.4199 42.8551 16.1815 43.6306C16.0975 43.9047 15.9454 44.1601 15.8137 44.4178C13.6046 48.7357 12.9166 53.33 13.6886 58.114C15.573 69.779 25.9785 77.5572 37.4443 75.9453C47.0029 74.6005 54.677 66.2882 55.3513 56.4155C55.8553 49.0472 53.4328 42.827 47.9769 38.0125C43.4019 33.9734 38.0391 32.3194 32.0315 32.9871C27.9447 33.4416 24.3461 35.0816 21.1424 37.7126C20.3591 38.3545 19.4873 38.2749 18.9605 37.5791C18.4179 36.8622 18.536 35.9953 19.3692 35.3721C20.5158 34.517 21.6851 33.6853 22.902 32.9449C23.4356 32.6193 23.7194 32.2608 23.8829 31.6517C26.9503 20.1156 39.6353 14.3873 49.9249 19.8813C59.2042 24.8364 62.5986 36.6607 57.4605 46.0765C57.288 46.3928 57.1722 46.8684 57.2676 47.1988C58.6571 52.0109 58.6752 56.8161 57.3266 61.6376C57.2653 61.8555 57.2812 62.2023 57.4106 62.3499C58.2575 63.3175 59.1452 64.2476 59.9648 65.1285C63.039 61.9774 65.9906 58.9504 69.0307 55.8344C67.9477 54.745 66.8466 53.6486 65.7613 52.5381C64.8736 51.6291 64.8622 51.2027 65.3572 50.0476C66.1109 48.2882 66.8193 46.5076 67.4868 44.7107C67.9205 43.5439 68.2474 43.2394 69.4758 43.237C70.9992 43.2347 72.5204 43.237 74.0689 43.237C74.0689 38.8489 74.0689 34.5592 74.0689 30.1874C72.4977 30.1874 70.972 30.1921 69.4462 30.1851C68.2838 30.1804 67.9137 29.8454 67.505 28.7489C66.8239 26.9285 66.1064 25.1175 65.3435 23.3323C64.8736 22.2312 64.8895 21.7626 65.7204 20.9075C66.8193 19.7759 67.9318 18.6583 68.9626 17.6111C65.918 14.4881 62.9528 11.4424 59.9807 8.39203C58.9568 9.44162 57.8738 10.5592 56.784 11.672C55.9212 12.5529 55.5466 12.5576 54.4408 12.0515C52.713 11.2597 50.9603 10.517 49.1961 9.81179C48.1676 9.39945 47.8747 9.0574 47.8702 7.86724C47.8656 6.26474 47.8679 4.66224 47.8679 3.02694C43.6222 3.02694 39.4695 3.02694 35.2487 3.02694C35.2487 4.65756 35.2533 6.23194 35.2465 7.80867C35.2419 9.01054 34.9218 9.39243 33.8592 9.81648C32.1223 10.5123 30.3945 11.2339 28.6917 12.0164C27.477 12.574 27.1614 12.5717 26.2146 11.5994C25.1316 10.4889 24.0532 9.37368 23.0791 8.36861C20.0708 11.4424 17.1101 14.467 14.0564 17.5806ZM55.6033 43.0379C57.5514 39.2425 57.708 32.6169 54.2456 27.7017C50.3245 22.1351 44.9776 19.8368 38.4319 21.1394C33.0555 22.2101 29.3864 25.6423 27.0842 31.0308C32.7762 29.3112 38.1912 29.4846 43.4814 31.7243C48.8215 33.9828 52.8107 37.8204 55.6033 43.0379ZM10.9005 75.13C8.51649 77.5877 6.09846 80.0781 3.71449 82.5334C4.87015 83.7259 6.09165 84.9817 7.2246 86.1507C9.61311 83.6954 12.0334 81.2073 14.4287 78.7474C13.2663 77.5549 12.0425 76.3014 10.9005 75.13ZM15.2007 75.1816C16.127 74.2046 16.9943 73.2862 17.8253 72.4077C17.5983 72.1429 17.285 71.7751 17.0874 71.5455C16.1702 72.4967 15.2915 73.408 14.4492 74.2796C14.6762 74.5513 14.9827 74.9192 15.2007 75.1816Z" fill="#002882"/>
</svg>
