<svg width="50" height="50" viewBox="0 0 50 50" fill="none" xmlns="http://www.w3.org/2000/svg">
<g id="openmoji:scroll" opacity="0.48">
<path id="Vector" d="M25.0423 15.3556C24.6607 15.3567 24.295 15.5088 24.0251 15.7786C23.7552 16.0485 23.6032 16.4142 23.6021 16.7958V20.8472C23.6033 21.2288 23.7555 21.5943 24.0254 21.864C24.2952 22.1337 24.6608 22.2857 25.0423 22.2868C25.4239 22.2857 25.7895 22.1337 26.0593 21.864C26.3291 21.5943 26.4813 21.2288 26.4826 20.8472V16.7958C26.4815 16.4142 26.3294 16.0485 26.0595 15.7786C25.7897 15.5088 25.424 15.3567 25.0423 15.3556V15.3556Z" fill="#3F3F3F"/>
<g id="Group 638">
<path id="Vector_2" d="M26.1361 11.6479H24.4194C20.3389 11.6479 17 14.9868 17 19.0674V30.8264C17 34.9069 20.3389 38.2458 24.4194 38.2458H26.1361C30.2167 38.2458 33.5556 34.9069 33.5556 30.8264V19.0674C33.5556 14.9868 30.2167 11.6479 26.1361 11.6479V11.6479Z" fill="#D0CFCE"/>
<path id="Vector_3" d="M24.6355 12.6229C26.7376 13.525 28.7355 14.8195 28.9681 18.0903C29.2376 21.8785 27.8362 28.9715 27.3848 32.5743C27.0702 35.0931 25.8244 36.2597 24.1695 37.5813C23.3362 38.2486 27.8272 38.1674 29.6765 37.0861C31.264 36.1583 32.8015 34.566 32.8202 35.0695L33.0445 17.1493C33.0445 17.1493 32.3938 12.332 27.0959 12.3299C27.0959 12.3299 21.782 12.057 24.6355 12.6229V12.6229Z" fill="#9B9B9A"/>
<path id="Vector_4" d="M27.2005 37.8479H23.3554C19.904 37.8479 17.0811 35.025 17.0811 31.5743V18.3194C17.0811 14.8688 19.9047 12.0458 23.3554 12.0458H27.1998C30.6512 12.0458 33.4741 14.8688 33.4741 18.3194V31.5743C33.4741 35.025 30.6505 37.8479 27.1998 37.8479H27.2005Z" stroke="black" stroke-width="2" stroke-miterlimit="10" stroke-linecap="round" stroke-linejoin="round"/>
</g>
<path id="Subtract" fill-rule="evenodd" clip-rule="evenodd" d="M21.2929 40.9707C21.6834 40.5801 22.3166 40.5801 22.7071 40.9707L25.6368 43.9004L28.5665 40.9707C28.957 40.5801 29.5902 40.5801 29.9807 40.9707C30.3712 41.3612 30.3712 41.9943 29.9807 42.3849L26.3585 46.0071C26.1595 46.2061 25.8976 46.3037 25.6368 46.2999C25.376 46.3037 25.1141 46.2061 24.9151 46.0071L21.2929 42.3849C20.9024 41.9943 20.9024 41.3612 21.2929 40.9707Z" fill="black"/>
<path id="Subtract_2" fill-rule="evenodd" clip-rule="evenodd" d="M25.4097 17C25.1864 17 25 17.187 25 17.409V21.6054C25.0005 21.7143 25.044 21.8186 25.121 21.8956C25.1981 21.9727 25.3024 22.0162 25.4113 22.0167H25.5264C25.5358 22.0167 25.5452 22.0168 25.5546 22.0171C25.7647 22.0021 25.9361 21.8216 25.9361 21.6083V17.4097C25.9361 17.1866 25.7494 17 25.5264 17H25.4097ZM25.4732 24.0167C25.4908 24.0176 25.5085 24.0181 25.5264 24.0181C26.8537 24.0181 27.9361 22.9356 27.9361 21.6083V17.4097C27.9361 16.0814 26.8534 15 25.5264 15H25.4097C24.0831 15 23 16.0811 23 17.409V21.6069L23 21.6094C23.0016 22.2474 23.2557 22.8587 23.7068 23.3099C24.1579 23.761 24.7693 24.0151 25.4073 24.0167L25.4097 24.0167H25.4732Z" fill="black"/>
</g>
</svg>
