<svg width="20" height="36" viewBox="0 0 20 36" fill="none" xmlns="http://www.w3.org/2000/svg">
<path d="M11.9651 26.8479H8.12001C4.66862 26.8479 1.8457 24.025 1.8457 20.5743V7.31945C1.8457 3.86875 4.66931 1.04584 8.12001 1.04584H11.9645C15.4158 1.04584 18.2388 3.86875 18.2388 7.31945V20.5743C18.2388 24.025 15.4151 26.8479 11.9645 26.8479H11.9651Z" stroke="black" stroke-width="2" stroke-miterlimit="10" stroke-linecap="round" stroke-linejoin="round"/>
<path fill-rule="evenodd" clip-rule="evenodd" d="M9.57405 5.7222C9.57405 5.50013 9.76042 5.31317 9.98378 5.31317H10.1004C10.3235 5.31317 10.5102 5.4998 10.5102 5.72289V9.9215C10.5102 10.1348 10.3387 10.3153 10.1286 10.3302C10.1193 10.33 10.1099 10.3298 10.1004 10.3298L9.98623 10.3298L9.98563 10.3298C9.87661 10.3294 9.77217 10.2859 9.69507 10.2088C9.61804 10.1318 9.57455 10.0275 9.57405 9.91854V5.7222ZM10.1004 12.3312C10.0826 12.3312 10.0649 12.3308 10.0473 12.3298H9.98378L9.98132 12.3298C9.34336 12.3283 8.73197 12.0741 8.28086 11.623C7.82975 11.1719 7.57562 10.5605 7.57406 9.92257L7.57405 9.92012V5.7222C7.57405 4.39427 8.65714 3.31317 9.98378 3.31317H10.1004C11.4274 3.31317 12.5102 4.39459 12.5102 5.72289V9.9215C12.5102 11.2488 11.4277 12.3312 10.1004 12.3312ZM7.13533 29.9706C6.74481 29.5801 6.11164 29.5801 5.72112 29.9706C5.33059 30.3612 5.33059 30.9943 5.72112 31.3849L9.34334 35.0071C9.54231 35.2061 9.80427 35.3037 10.065 35.2999C10.3258 35.3037 10.5877 35.2061 10.7867 35.0071L14.4089 31.3849C14.7995 30.9943 14.7995 30.3612 14.4089 29.9706C14.0184 29.5801 13.3852 29.5801 12.9947 29.9706L10.065 32.9003L7.13533 29.9706Z" fill="black"/>
</svg>
